# xmcd CD database file
#
# Track frame offsets:
#	150
#	4955
#	21158
#	37266
#	54306
#	73177
#	87496
#	104256
#	121936
#	137650
#	153930
#	168998
#	182462
#	192829
#	203201
#	213984
#	225001
#	235510
#	248141
#	259734
#	270425
#	282247
#	291822
#	302300
#
# Disc length: 4247 seconds
#
# Revision: 0
# Processed by: cddbd v1.4PL0 Copyright (c) Steve Scherf et al.
# Submitted via: CDex 1.50
#
DISCID=42109518
DTITLE=CVLS - Lets Jam
DYEAR=2001
DGENRE=Country
TTITLE0=Tuning
TTITLE1=Chick'n Pcik'n in A
TTITLE2=Cool Country in G
TTITLE3=E Country
TTITLE4=Attitude Country in D
TTITLE5=G Boogie
TTITLE6=C Country
TTITLE7=Country Swing in E
TTITLE8=Scattered, Covered and Smoothered
TTITLE9=Gospel Waltz
TTITLE10=Country Changes 1
TTITLE11=Country Changes 2
TTITLE12=9 Pound Hammer 1
TTITLE13=9 Pound Hammer 2
TTITLE14=Old Joe Clark 1
TTITLE15=Old Joe Clark 2
TTITLE16=Sitting On Top of the World
TTITLE17=Salt River
TTITLE18=Lonesome Road Blues 1
TTITLE19=Lonesome Road Blues 2
TTITLE20=Little Maggie 1
TTITLE21=Little Maggie 2
TTITLE22=Sally Goodin
TTITLE23=John Hardy
EXTD=YEAR: 2001
EXTT0=
EXTT1=
EXTT2=
EXTT3=
EXTT4=
EXTT5=
EXTT6=
EXTT7=
EXTT8=
EXTT9=
EXTT10=
EXTT11=
EXTT12=
EXTT13=
EXTT14=
EXTT15=
EXTT16=
EXTT17=
EXTT18=
EXTT19=
EXTT20=
EXTT21=
EXTT22=
EXTT23=
PLAYORDER=
